<svg id="Layer_1" data-name="Layer 1" xmlns="http://www.w3.org/2000/svg" viewBox="0 0 783.61 635.23"><defs><style>.cls-1{fill:#dd658d;}</style></defs><path class="cls-1" d="M33.85,556.88C35,476.27,29,395.41,49.1,315.74,81.17,188.43,181.92,108.22,311,108c19.29,0,27.59,4,26.76,24.81-1.4,35.1-.54,70.29-.31,105.44.07,11.33-1.59,19.38-14.83,23.79-87.84,29.22-106.88,54-110.31,140.6-2,51.73-2,51.73,49.17,51.73,62.08,0,62.08,0,62.08,63.13,0,64.45-.92,128.91.49,193.32.51,23.42-4.6,32.91-30.52,32.34-77.4-1.67-154.86-1.33-232.27-.13-21.83.33-28.33-6.56-27.79-28C34.76,662.36,33.86,609.61,33.85,556.88Z" transform="translate(-33.39 -107.98)"/><path class="cls-1" d="M513.27,562c.9-80.54-3.87-161.13,14.21-241,29-127.95,131.23-212.19,260.43-213,21.59-.14,29.86,5.69,28,27.35a318.22,318.22,0,0,0-.1,49.11c2.94,42.83,5.46,77.44-55.1,88.69-54.24,10.08-65.24,65.13-69.82,114.43-6.19,66.73-5.31,66.46,61.31,66.93,57.42.42,49.14-7.65,49.53,50.76.47,69-.56,138.09.51,207.12.34,21.46-3.8,31.24-28.45,30.76q-116-2.28-232,0c-23.89.44-29.59-8-29-30.17C514.22,662.67,513.26,612.32,513.27,562Z" transform="translate(-33.39 -107.98)"/></svg>